<svg class="MuiSvgIcon-root" focusable="false" viewBox="0 0 111 19" aria-hidden="true" width="111" height="19" fill="none" xmlns="http://www.w3.org/2000/svg"><path d="M19.6945 7.80527L14.4317 11.8193L16.4421 18.3136C16.5089 18.5295 16.4357 18.7662 16.2607 18.8998C16.173 18.9665 16.07 19 15.967 19C15.8641 19 15.7611 18.9666 15.6734 18.8998L10.4106 14.8858L5.14787 18.8998C4.9727 19.0334 4.73579 19.0334 4.56062 18.8998C4.38559 18.7662 4.31243 18.5297 4.37918 18.3136L6.38954 11.8193L1.12677 7.80527C0.951737 7.6717 0.878575 7.43515 0.945327 7.21909C1.01222 7.00302 1.20397 6.85672 1.42037 6.85672H7.92535L9.93542 0.362367C10.0023 0.146294 10.1941 0 10.4105 0C10.6269 0 10.8186 0.146291 10.8855 0.362367L12.8956 6.85672H19.4006C19.617 6.85672 19.8087 7.00301 19.8756 7.21909C19.9424 7.43502 19.8692 7.67172 19.6942 7.80527H19.6945Z" fill="#00FF84"></path><path d="M65.2443 7.80527L59.9815 11.8193L61.9919 18.3136C62.0587 18.5295 61.9855 18.7662 61.8105 18.8998C61.7228 18.9665 61.6198 19 61.5168 19C61.4139 19 61.3109 18.9666 61.2232 18.8998L55.9604 14.8858L50.6977 18.8998C50.5225 19.0334 50.2856 19.0334 50.1104 18.8998C49.9354 18.7662 49.8622 18.5297 49.929 18.3136L51.9393 11.8193L46.6766 7.80527C46.5015 7.6717 46.4284 7.43515 46.4951 7.21909C46.562 7.00302 46.7538 6.85672 46.9702 6.85672H53.4752L55.4852 0.362367C55.5521 0.146294 55.7439 0 55.9603 0C56.1767 0 56.3684 0.146291 56.4353 0.362367L58.4454 6.85672H64.9504C65.1668 6.85672 65.3585 7.00301 65.4254 7.21909C65.4922 7.43502 65.419 7.67172 65.244 7.80527H65.2443Z" fill="#00FF84"></path><path d="M42.4699 7.80527L37.2071 11.8193L39.2175 18.3136C39.2842 18.5295 39.2111 18.7662 39.0361 18.8998C38.9484 18.9665 38.8454 19 38.7424 19C38.6394 19 38.5365 18.9666 38.4488 18.8998L33.186 14.8858L27.9233 18.8998C27.7481 19.0334 27.5112 19.0334 27.336 18.8998C27.161 18.7662 27.0878 18.5297 27.1546 18.3136L29.1649 11.8193L23.9022 7.80527C23.7271 7.6717 23.654 7.43515 23.7207 7.21909C23.7876 7.00302 23.9794 6.85672 24.1958 6.85672H30.7007L32.7108 0.362367C32.7777 0.146294 32.9695 0 33.1859 0C33.4023 0 33.594 0.146291 33.6609 0.362367L35.671 6.85672H42.176C42.3924 6.85672 42.5841 7.00301 42.651 7.21909C42.7178 7.43502 42.6446 7.67172 42.4696 7.80527H42.4699Z" fill="#00FF84"></path><path d="M88.0197 7.80527L82.7569 11.8193L84.7673 18.3136C84.834 18.5295 84.7609 18.7662 84.5859 18.8998C84.4982 18.9665 84.3952 19 84.2922 19C84.1893 19 84.0863 18.9666 83.9986 18.8998L78.7358 14.8858L73.4731 18.8998C73.2979 19.0334 73.061 19.0334 72.8858 18.8998C72.7108 18.7662 72.6376 18.5297 72.7044 18.3136L74.7147 11.8193L69.452 7.80527C69.2769 7.6717 69.2038 7.43515 69.2705 7.21909C69.3374 7.00302 69.5292 6.85672 69.7456 6.85672H76.2505L78.2606 0.362367C78.3275 0.146294 78.5193 0 78.7357 0C78.9521 0 79.1438 0.146291 79.2107 0.362367L81.2208 6.85672H87.7258C87.9422 6.85672 88.1339 7.00301 88.2008 7.21909C88.2676 7.43502 88.1944 7.67172 88.0194 7.80527H88.0197Z" fill="#00FF84"></path><path d="M110.794 7.80527L105.531 11.8193L107.542 18.3136C107.608 18.5295 107.535 18.7662 107.36 18.8998C107.273 18.9665 107.17 19 107.067 19C106.964 19 106.861 18.9666 106.773 18.8998L101.51 14.8858L96.2475 18.8998C96.0723 19.0334 95.8354 19.0334 95.6602 18.8998C95.4852 18.7662 95.412 18.5297 95.4788 18.3136L97.4891 11.8193L92.2264 7.80527C92.0513 7.6717 91.9782 7.43515 92.0449 7.21909C92.1118 7.00302 92.3036 6.85672 92.52 6.85672H99.025L101.035 0.362367C101.102 0.146294 101.294 0 101.51 0C101.726 0 101.918 0.146291 101.985 0.362367L103.995 6.85672H110.5C110.717 6.85672 110.908 7.00301 110.975 7.21909C111.042 7.43502 110.969 7.67172 110.794 7.80527H110.794Z" fill="#00FF84"></path></svg>